# xmcd
#
# Track frame offsets: 
#        150
#        10635
#        20870
#        32907
#        44296
#        45373
#        56957
#        72428
#        84828
#        96299
#        108825
#
# Disc length: 1620 seconds
#
# Revision: 0
# Processed by: cddbd v1.5.1PL0 Copyright (c) Steve Scherf et al.
# Submitted via: ExactAudioCopy v0.95a5
#
DISCID=8806520b
DTITLE=Evan Rose and The Lonesome Whistle Band - Mark It Down
DYEAR=2003
DGENRE=Bluegrass
TTITLE0=Mark It Down
TTITLE1=Evan's Reel
TTITLE2=I'll Get By
TTITLE3=In The Highways
TTITLE4=Testimony
TTITLE5=Traveling The Highway Home
TTITLE6=Mule Skinner Blues
TTITLE7=Back To Old Kentucky
TTITLE8=Kentucky Mandolin
TTITLE9=I'll Fly Away
TTITLE10=Raw Hide
EXTD=
EXTT0=
EXTT1=
EXTT2=
EXTT3=
EXTT4=
EXTT5=
EXTT6=
EXTT7=
EXTT8=
EXTT9=
EXTT10=
PLAYORDER=
